<svg xmlns="http://www.w3.org/2000/svg" xmlns:xlink="http://www.w3.org/1999/xlink" width="16" height="16" class="icon" p-id="7480" t="1604590888105" version="1.1" viewBox="0 0 1024 1024"><defs><style type="text/css"/></defs><path d="M915.437 962h-310.31a46.563 46.563 0 0 1-46.564-46.563v-310.31a46.563 46.563 0 0 1 46.563-46.564h310.358a46.563 46.563 0 0 1 46.563 46.563v310.31A46.563 46.563 0 0 1 915.437 962z m0-496.563h-310.31a46.563 46.563 0 0 1-46.564-46.516V108.563A46.563 46.563 0 0 1 605.126 62h310.358a46.563 46.563 0 0 1 46.563 46.563v310.358a46.563 46.563 0 0 1-46.61 46.516zM418.92 962H108.563A46.563 46.563 0 0 1 62 915.437v-310.31a46.563 46.563 0 0 1 46.563-46.564h310.358a46.563 46.563 0 0 1 46.563 46.563v310.31A46.563 46.563 0 0 1 418.921 962z m0-496.563H108.563A46.563 46.563 0 0 1 62 418.92V108.563A46.563 46.563 0 0 1 108.563 62h310.358a46.563 46.563 0 0 1 46.563 46.563v310.358a46.563 46.563 0 0 1-46.563 46.516z" p-id="7481"/></svg>