<svg xmlns="http://www.w3.org/2000/svg" xmlns:xlink="http://www.w3.org/1999/xlink" width="20.859" height="16" class="icon" p-id="4513" t="1602710897847" version="1.1" viewBox="0 0 1335 1024"><defs><style type="text/css"/></defs><path fill="#707070" d="M1090.78753 0H244.963078A245.189476 245.189476 0 0 0 0 244.963078v534.300243a245.189476 245.189476 0 0 0 244.963078 244.736679h845.824452A245.189476 245.189476 0 0 0 1335.750608 779.263321v-534.300243A245.189476 245.189476 0 0 0 1090.78753 0zM244.963078 133.575061h845.824452a111.614415 111.614415 0 0 1 111.388017 111.388017v51.845235H133.575061v-51.845235a111.614415 111.614415 0 0 1 111.388017-111.388017z m845.824452 756.849878H244.963078a111.388017 111.388017 0 0 1-111.388017-111.161618V430.156975h1068.600486v349.106346a111.388017 111.388017 0 0 1-111.388017 111.161618z" p-id="4514"/><path fill="#707070" d="M646.367455 727.191687H290.242759a66.78753 66.78753 0 0 1 0-133.575061h356.124696a66.78753 66.78753 0 0 1 0 133.575061z" p-id="4515"/></svg>